# xmcd
#
# Track frame offsets:
#	150
#	21112
#	37870
#	52105
#	65795
#	81725
#	98765
#	114370
#	132330
#	150300
#
# Disc length: 2247 seconds
#
# Revision: 0
# Processed by: cddbd v1.5.1PL0 Copyright (c) Steve Scherf et al.
# Submitted via: EasyCDDAExtractor 8.0.2.1
#
DISCID=8008c50a
DTITLE=Taj Mahal - Take A Giant Step
DYEAR=1900
DGENRE=Blues
TTITLE0=Take A Giant Step
TTITLE1=Down Home Girl
TTITLE2=Let the Four Winds Blow
TTITLE3=Cakewalk Into Town
TTITLE4=Sittin' On Top of the World
TTITLE5=(You've Got To) Love Her With A Feeling
TTITLE6=Lonely Avenue
TTITLE7=Ooh Poo Pah Doo
TTITLE8=Mockingbird
TTITLE9=Blue Light Boogie
EXTD=
EXTT0=
EXTT1=
EXTT2=
EXTT3=
EXTT4=
EXTT5=
EXTT6=
EXTT7=
EXTT8=
EXTT9=
PLAYORDER=
